<?xml version="1.0" encoding="UTF-8" standalone="no"?>
<!-- Created with Inkscape (http://www.inkscape.org/) -->

<svg
   width="400mm"
   height="400mm"
   viewBox="0 0 400 400"
   version="1.1"
   id="svg1"
   inkscape:version="1.3 (0e150ed6c4, 2023-07-21)"
   sodipodi:docname="unicc.svg"
   xmlns:inkscape="http://www.inkscape.org/namespaces/inkscape"
   xmlns:sodipodi="http://sodipodi.sourceforge.net/DTD/sodipodi-0.dtd"
   xmlns="http://www.w3.org/2000/svg"
   xmlns:svg="http://www.w3.org/2000/svg">
  <sodipodi:namedview
     id="namedview1"
     pagecolor="#ffffff"
     bordercolor="#666666"
     borderopacity="1.0"
     inkscape:showpageshadow="2"
     inkscape:pageopacity="0.0"
     inkscape:pagecheckerboard="0"
     inkscape:deskcolor="#d1d1d1"
     inkscape:document-units="mm"
     inkscape:zoom="0.336297"
     inkscape:cx="695.81352"
     inkscape:cy="822.18991"
     inkscape:window-width="1920"
     inkscape:window-height="997"
     inkscape:window-x="1920"
     inkscape:window-y="0"
     inkscape:window-maximized="1"
     inkscape:current-layer="layer1" />
  <style
   type="text/css"
   id="style2">
   path, text { fill: #000; }
   @media (prefers-color-scheme: dark) { path, text { fill: #ddd; } }
  </style>
  <defs
     id="defs1">
    <rect
       x="207.65279"
       y="954.19446"
       width="1178.1019"
       height="340.63002"
       id="rect14" />
    <rect
       x="54.848711"
       y="915.04896"
       width="957.52973"
       height="326.31679"
       id="rect13" />
    <rect
       x="46.105309"
       y="913.41476"
       width="1395.2925"
       height="577.63487"
       id="rect1" />
  </defs>
  <g
     inkscape:label="Layer 1"
     inkscape:groupmode="layer"
     id="layer1">
    <path
       style="stroke-width:1.02274;"
       id="p2"
       d="m 298.32114,198.63261 c 1.22511,-2.72416 2.33746,-5.4967 3.46291,-8.26283 1.92129,-4.7388 3.86434,-9.47305 5.4114,-14.34978 0.17777,-0.60749 0.37548,-1.2095 0.53337,-1.82245 0.15916,-0.61784 0.26997,-1.24721 0.41725,-1.86798 0.52155,-2.19747 1.11726,-4.37105 1.59554,-6.57931 0.31645,-1.8111 0.1729,-0.93186 0.43419,-2.63711 l -5.30168,2.60865 v 0 c -0.21199,1.65862 -0.0873,0.80231 -0.3805,2.56798 -0.68344,3.4156 -1.54249,6.80063 -2.45016,10.16184 -1.47574,4.80545 -3.2096,9.52404 -5.13859,14.16659 -1.16741,2.74702 -2.27528,5.5235 -3.48729,8.25125 -1.34002,3.01582 -8.09203,18.16092 -11.53771,24.05865 -5.69008,9.56531 -10.09304,19.89917 -11.14314,21.27169 13.53195,-18.65283 24.61142,-40.95656 27.58441,-47.56719 z"
       sodipodi:nodetypes="sccsccccscccsccs" />
    <path
       style="stroke-width:1.02274;"
       id="p1"
       d="m 122.97087,247.74155 c 1.45597,0.20786 37.77143,-15.19957 87.30348,-73.93522 2.1313,-2.52732 4.20146,-5.10555 6.3022,-7.65832 6.3559,-7.90378 12.20713,-16.187 17.87311,-24.59288 3.2577,-4.83302 7.90017,-11.86338 10.98362,-16.87903 1.54025,-2.50544 2.99084,-5.06493 4.48624,-7.59739 6.16547,-10.657 11.46452,-21.758093 16.4566,-32.999994 3.26441,-7.446304 6.45532,-14.923524 9.68079,-22.386759 1.24334,-2.790899 2.608,-5.527347 4.02369,-8.234384 0.16503,-0.315577 1.21126,-2.361118 1.63547,-2.801706 0.14726,-0.152947 0.38851,-0.171401 0.58276,-0.257101 -2.45649,1.392656 -4.95021,2.721613 -7.36948,4.177968 -0.0712,0.04287 0.005,0.166281 0.0157,0.248861 0.0396,0.346406 0.10037,0.690429 0.1315,1.037699 0.17037,1.898905 0.26954,3.811233 0.39565,5.713423 0.26612,5.699345 1.12753,11.358815 1.91953,17.005056 0.97185,5.865572 2.29012,11.653774 3.72504,17.419321 2.07033,8.695736 4.9263,17.167526 7.59192,25.690576 3.92467,12.55991 8.71871,24.815 13.2691,37.15421 5.2927,13.41763 14.46485,27.07146 22.03087,39.30907 21.76698,30.52247 8.59134,13.90923 34.70634,46.26117 -27.91819,-42.6495 -2.20407,-5.41096 -32.18524,-49.39307 -7.89744,-11.9904 -13.52228,-25.99886 -18.55155,-39.5052 -4.50987,-12.3651 -9.18319,-24.68213 -12.86786,-37.32766 -2.49774,-8.60904 -5.13466,-17.19256 -6.99162,-25.969905 -1.36803,-5.752237 -2.62171,-11.540122 -3.6681,-17.359249 -0.78277,-5.650039 -1.55775,-11.329432 -1.69434,-17.037519 -0.0492,-1.96481 -0.0531,-3.936353 -0.12391,-5.90021 -0.0152,-0.41867 -0.005,-0.842801 -0.085,-1.253946 -0.0667,-0.340701 -0.0252,-1.097344 -0.35207,-0.980168 -2.78696,0.99933 -5.30111,2.638441 -7.95168,3.957663 -0.6265,1.006235 -1.08707,2.103359 -1.58284,3.177565 -1.24311,2.693521 -2.49989,5.381361 -3.66362,8.110608 -3.18327,7.437457 -6.32432,14.89159 -9.53295,22.317936 -1.89654,4.532583 -3.76781,9.087396 -5.82473,13.550315 -2.95376,6.40884 -6.24509,12.65578 -9.56873,18.87795 -1.41935,2.49052 -2.7887,5.0102 -4.25803,7.47153 -8.61912,14.43803 -18.45764,28.13856 -28.8152,41.36919 -5.17649,6.26985 -7.36571,9.02596 -12.73767,15.1168 -8.5727,9.71992 -17.65543,18.97812 -27.14927,27.79969 -10.87362,11.04714 -22.90252,19.57781 -35.6796,28.07481 3.60319,-2.33977 -10.01547,6.5722 -12.46012,8.2283 z"
       sodipodi:nodetypes="cscsscccsscscccccccccccccccccccsccscccscsc" />
    <text
       xml:space="preserve"
       transform="matrix(0.57205348,0,0,0.57205348,-107.7215,-326.71076)"
       id="p3"
       style="font-style:normal;font-variant:normal;font-weight:normal;font-stretch:normal;font-size:266.667px;line-height:125%;font-family:Carlito;-inkscape-font-specification:Carlito;letter-spacing:0px;word-spacing:0px;white-space:pre;shape-inside:url(#rect14);display:inline;stroke-width:1.52433;stroke-linecap:butt;stroke-linejoin:miter;stroke-dasharray:none;stroke-opacity:1"><tspan
         x="207.65234"
         y="1187.5289"
         id="tspan3">UniCC</tspan></text>
  </g>
</svg>
